<?xml version="1.0" encoding="UTF-8" standalone="no"?>
<svg
   xmlns:dc="http://purl.org/dc/elements/1.1/"
   xmlns:cc="http://creativecommons.org/ns#"
   xmlns:rdf="http://www.w3.org/1999/02/22-rdf-syntax-ns#"
   xmlns:svg="http://www.w3.org/2000/svg"
   xmlns="http://www.w3.org/2000/svg"
   xmlns:sodipodi="http://sodipodi.sourceforge.net/DTD/sodipodi-0.dtd"
   xmlns:inkscape="http://www.inkscape.org/namespaces/inkscape"
   version="1.1"
   preserveAspectRatio="xMidYMid meet"
   viewBox="417 227 360 85"
   id="svg2"
   inkscape:version="0.91 r13725"
   sodipodi:docname="logo.svg"
   width="360"
   height="85"
   inkscape:export-filename="/home/maris/soft/timlab/src/timlab/static/logo.png"
   inkscape:export-xdpi="90"
   inkscape:export-ydpi="90">
  <metadata
     id="metadata43">
    <rdf:RDF>
      <cc:Work
         rdf:about="">
        <dc:format>image/svg+xml</dc:format>
        <dc:type
           rdf:resource="http://purl.org/dc/dcmitype/StillImage" />
        <dc:title></dc:title>
      </cc:Work>
    </rdf:RDF>
  </metadata>
  <defs
     id="defs41">
    <filter
       id="logo__item--business_Effect"
       x="-1"
       y="-1"
       width="3"
       height="3">
      <feGaussianBlur
         in="SourceGraphic"
         stdDeviation="1"
         result="glow"
         id="feGaussianBlur8" />
      <feMerge
         id="feMerge10">
        <feMergeNode
           in="glow"
           id="feMergeNode12" />
        <feMergeNode
           in="SourceGraphic"
           id="feMergeNode14" />
      </feMerge>
    </filter>
  </defs>
  <sodipodi:namedview
     pagecolor="#ffffff"
     bordercolor="#666666"
     borderopacity="1"
     objecttolerance="10"
     gridtolerance="10"
     guidetolerance="10"
     inkscape:pageopacity="0"
     inkscape:pageshadow="2"
     inkscape:window-width="1440"
     inkscape:window-height="803"
     id="namedview39"
     showgrid="false"
     fit-margin-top="1"
     fit-margin-left="1"
     fit-margin-bottom="1"
     fit-margin-right="1"
     inkscape:zoom="1.2309711"
     inkscape:cx="345.89099"
     inkscape:cy="88.066581"
     inkscape:window-x="0"
     inkscape:window-y="0"
     inkscape:window-maximized="1"
     inkscape:current-layer="svg2" />
  <text
     data-part-id="logo__item--business"
     dy="0"
     dominant-baseline="auto"
     alignment-baseline="auto"
     font-size="32px"
     letter-spacing="0"
     font-weight="normal"
     font-style="normal"
     data-font-family="Fredericka the Great"
     data-font-weight="normal"
     data-font-style="normal"
     data-ttf-url="/builder_assets/fontsttf/font-montserrat-bold-normal.ttf"
     data-font-filename="fredericka-the-great-normal-normal"
     data-filter-glow=""
     data-filter-glow-thickness="1"
     id="text16"
     style="font-style:normal;font-variant:normal;font-weight:500;font-stretch:normal;font-size:31.99977875px;line-height:125%;font-family:'URW Palladio L';-inkscape-font-specification:'URW Palladio L, Medium';text-align:start;letter-spacing:0;writing-mode:lr-tb;text-anchor:start;fill:#f16722;filter:url(#logo__item--business_Effect)"
     transform="matrix(2.2851721,0,0,2.2851721,512.5,301.72283)"
     sodipodi:linespacing="125%">TImLab</text>
  <g
     data-item-type="image"
     data-item="Image"
     data-logo-item=""
     id="logo__item--logo_0"
     class="logo__item">
    <g
       class="logo__item__inner"
       transform="matrix(0.97430219,0,0,0.97430219,412.5265,220.5)"
       id="g19">
      <g
         id="g21">
        <path
           d="m 52.791,19.098 c 0,0 17.756,15.021 30.004,24.932 0,0 6.1,4.058 2.116,6.761 L 62.63,68.112 c 0,0 -9.417,3.807 -5.401,-2.954 0,0 9.932,-12.254 14.368,-16.059 0,0 5.19,-4.166 1.057,-8.24 -10e-4,0 -15.425,-15 -19.863,-21.761 z"
           data-part-id="logo__item--logo_0__0"
           id="path23"
           inkscape:connector-curvature="0"
           style="fill:#89c140" />
        <path
           d="m 90.645,35.265 c 0,2.996 -2.428,5.421 -5.421,5.421 -2.997,0 -5.422,-2.425 -5.422,-5.421 0,-2.997 2.425,-5.422 5.422,-5.422 2.993,0 5.421,2.425 5.421,5.422 z"
           data-part-id="logo__item--logo_0__1"
           id="path25"
           inkscape:connector-curvature="0"
           style="fill:#404041" />
        <path
           d="m 83.029,53.989 c 0,0 -15.024,17.755 -24.932,30.004 0,0 -4.064,6.097 -6.764,2.11 L 34.015,63.825 c 0,0 -3.811,-9.414 2.951,-5.398 0,0 12.255,9.928 16.057,14.367 0,0 4.169,5.195 8.242,1.058 0,0 15.004,-15.425 21.764,-19.863 z"
           data-part-id="logo__item--logo_0__2"
           id="path27"
           inkscape:connector-curvature="0"
           style="fill:#f5c315" />
        <path
           d="m 66.859,91.842 c -2.994,0 -5.425,-2.428 -5.425,-5.424 0,-2.993 2.431,-5.424 5.425,-5.424 2.993,0 5.424,2.431 5.424,5.424 0,2.996 -2.43,5.424 -5.424,5.424 z"
           data-part-id="logo__item--logo_0__3"
           id="path29"
           inkscape:connector-curvature="0"
           style="fill:#404041" />
        <path
           d="m 46.388,83.522 c 0,0 -17.754,-15.021 -30.004,-24.931 0,0 -6.097,-4.06 -2.116,-6.762 L 36.552,34.507 c 0,0 9.412,-3.811 5.398,2.954 0,0 -9.931,12.255 -14.368,16.061 0,0 -5.197,4.164 -1.057,8.238 0.001,0.001 15.426,15.001 19.863,21.762 z"
           data-part-id="logo__item--logo_0__4"
           id="path31"
           inkscape:connector-curvature="0"
           style="fill:#f16722" />
        <path
           d="m 8.535,67.355 c 0,-2.996 2.428,-5.421 5.421,-5.421 2.997,0 5.422,2.425 5.422,5.421 0,2.996 -2.425,5.422 -5.422,5.422 -2.993,0 -5.421,-2.425 -5.421,-5.422 z"
           data-part-id="logo__item--logo_0__5"
           id="path33"
           inkscape:connector-curvature="0"
           style="fill:#404041" />
        <path
           d="m 17.64,48.195 c 0,0 15.018,-17.751 24.932,-30.003 0,0 4.058,-6.098 6.76,-2.113 L 66.651,38.36 c 0,0 3.811,9.411 -2.95,5.398 0,0 -12.255,-9.931 -16.06,-14.369 0,0 -4.164,-5.193 -8.24,-1.056 10e-4,0 -14.999,15.425 -21.761,19.862 z"
           data-part-id="logo__item--logo_0__6"
           id="path35"
           inkscape:connector-curvature="0"
           style="fill:#26a9e0" />
        <path
           d="m 33.808,10.343 c 2.996,0 5.421,2.428 5.421,5.424 0,2.994 -2.425,5.421 -5.421,5.421 -2.997,0 -5.422,-2.428 -5.422,-5.421 -10e-4,-2.996 2.425,-5.424 5.422,-5.424 z"
           data-part-id="logo__item--logo_0__7"
           id="path37"
           inkscape:connector-curvature="0"
           style="fill:#404041" />
      </g>
    </g>
  </g>
</svg>
